<?xml version="1.0" encoding="utf-8"?>
<!-- Generator: Adobe Illustrator 18.1.0, SVG Export Plug-In . SVG Version: 6.00 Build 0)  -->
<!DOCTYPE svg PUBLIC "-//W3C//DTD SVG 1.1//EN" "http://www.w3.org/Graphics/SVG/1.1/DTD/svg11.dtd">
<svg version="1.1" id="Layer_1" xmlns="http://www.w3.org/2000/svg" xmlns:xlink="http://www.w3.org/1999/xlink" x="0px" y="0px"
	 viewBox="0 0 41.7 39.3" enable-background="new 0 0 41.7 39.3" xml:space="preserve">
<g display="none">
	
		<rect x="3.4" y="2.8" display="inline" fill-rule="evenodd" clip-rule="evenodd" fill="none" stroke="#EAF0F1" stroke-width="0.36" stroke-linecap="round" stroke-linejoin="round" stroke-miterlimit="10" width="35" height="33.7"/>
	<rect x="7.7" y="7" display="inline" fill-rule="evenodd" clip-rule="evenodd" fill="#EAF0F1" width="26.2" height="25.2"/>
</g>
<g>
	<g>
		<path fill-rule="evenodd" clip-rule="evenodd" fill="#F2F1EF" d="M9.2,11.8c0-2.5,2-4.5,4.5-4.5s4.5,2,4.5,4.5
			c0,2.4-2,4.5-4.5,4.5S9.2,14.3,9.2,11.8z"/>
		<path fill-rule="evenodd" clip-rule="evenodd" fill="#F2F1EF" d="M8.5,23.3c0,0.2,0,0.5,0,0.7c0,0.1,0,0.3,0,0.4v5.2
			c0,1.3,1.1,2.4,2.4,2.4h5.3c1.3,0,2.4-1.1,2.4-2.4v-4.9c0.1-0.5,0.2-1,0.2-1.5c0-2.8-2.3-5.1-5.2-5.1S8.5,20.5,8.5,23.3z"/>
	</g>
	<g>
		<path fill-rule="evenodd" clip-rule="evenodd" fill="#F2F1EF" d="M23.4,11.8c0-2.5,2-4.5,4.5-4.5s4.5,2,4.5,4.5
			c0,2.4-2,4.5-4.5,4.5S23.4,14.3,23.4,11.8z"/>
		<path fill-rule="evenodd" clip-rule="evenodd" fill="#F2F1EF" d="M22.8,23.3c0,0.2,0,0.5,0,0.7c0,0.1,0,0.3,0,0.4v5.2
			c0,1.3,1.1,2.4,2.4,2.4h5.3c1.3,0,2.4-1.1,2.4-2.4v-4.9c0.1-0.5,0.2-1,0.2-1.5c0-2.8-2.3-5.1-5.2-5.1S22.8,20.5,22.8,23.3z"/>
	</g>
</g>
<path display="none" fill-rule="evenodd" clip-rule="evenodd" fill="#F2F1EF" d="M8.5,14.9v0.4l0,0.3c0,0.6,0.1,1.1,0.3,1.7
	c0.4,1.7,1.3,4.4,3.2,7c3.1,4.4,7.6,7,7.6,7c0.7,1,1.8,1,2.5,0c0,0,4.5-2.5,7.5-6.9c1.9-2.7,2.8-5.4,3.2-7.2c0.1-0.5,0.3-1,0.3-1.5
	l0-0.3v-0.4c0-4.1-3.3-7.5-7.5-7.5c-1.8,0-3.5,0.7-4.8,1.8c-1.3-1.1-3-1.8-4.8-1.8C11.9,7.4,8.5,10.7,8.5,14.9z M8.5,15.3L8.5,15.3
	l0,0.3L8.5,15.3z M33.1,15.6l0-0.3l0,0L33.1,15.6z"/>
</svg>
